<svg width="46" height="42" viewBox="0 0 46 42" fill="none" xmlns="http://www.w3.org/2000/svg">
<path d="M17.9995 26H16.9995V27V39.5C16.9995 40.3227 16.3222 41 15.4995 41H7.99951C7.1768 41 6.49951 40.3227 6.49951 39.5V22V21H5.49951H1.24951C1.17679 21 1.13556 20.98 1.10825 20.9599C1.07564 20.9359 1.04348 20.8963 1.02334 20.8426C1.00315 20.7888 1.00093 20.7364 1.00996 20.6951C1.01764 20.6601 1.03574 20.6193 1.08613 20.5748L1.08617 20.5749L1.09377 20.568L21.9913 1.74523C21.9917 1.74486 21.9921 1.74449 21.9926 1.74412C22.5625 1.23528 23.4365 1.23528 24.0065 1.74413C24.0069 1.7445 24.0073 1.74487 24.0077 1.74523L44.9053 20.568L44.9144 20.5763L44.9237 20.5843C44.9778 20.6306 44.994 20.6703 45.0006 20.6997C45.0087 20.7358 45.0073 20.7843 44.9872 20.8369C44.9671 20.8896 44.934 20.931 44.8981 20.9572C44.8672 20.9796 44.8227 21 44.7495 21H40.4995H39.4995V22V39.5C39.4995 40.3227 38.8222 41 37.9995 41H30.4995C29.6768 41 28.9995 40.3227 28.9995 39.5V27V26H27.9995H17.9995Z" fill="white" stroke="black" stroke-width="2"/>
<path d="M17.9995 26H16.9995V27V39.5C16.9995 40.3227 16.3222 41 15.4995 41H7.99951C7.1768 41 6.49951 40.3227 6.49951 39.5V22V21H5.49951H1.24951C1.17679 21 1.13556 20.98 1.10825 20.9599C1.07564 20.9359 1.04348 20.8963 1.02334 20.8426C1.00315 20.7888 1.00093 20.7364 1.00996 20.6951C1.01764 20.6601 1.03574 20.6193 1.08613 20.5748L1.08617 20.5749L1.09377 20.568L21.9913 1.74523C21.9917 1.74486 21.9921 1.7445 21.9925 1.74413C22.5625 1.23527 23.4365 1.23527 24.0065 1.74413C24.0069 1.7445 24.0073 1.74486 24.0077 1.74523L44.9053 20.568L44.9144 20.5762L44.9237 20.5842C44.9778 20.6306 44.994 20.6703 45.0006 20.6997C45.0087 20.7358 45.0073 20.7843 44.9872 20.8369C44.9671 20.8896 44.934 20.931 44.8981 20.9571C44.8672 20.9796 44.8227 21 44.7495 21H40.4995H39.4995V22V39.5C39.4995 40.3227 38.8222 41 37.9995 41H30.4995C29.6768 41 28.9995 40.3227 28.9995 39.5V27V26H27.9995H17.9995Z" fill="white" stroke="black" stroke-width="2"/>
</svg>
