<svg width="132" height="72" viewBox="0 0 132 72" fill="none" xmlns="http://www.w3.org/2000/svg">
<path d="M107.969 20.125H59.0312V53.875H107.969V20.125Z" fill="white" fill-opacity="0.01"/>
<path d="M79.875 59.5C61.8568 59.5 47.25 49.4264 47.25 37C47.25 24.5736 61.8568 14.5 79.875 14.5" stroke="black" stroke-width="6" stroke-linecap="round" stroke-linejoin="round"/>
<path d="M119.75 59.5C101.732 59.5 87.125 49.4264 87.125 37C87.125 24.5736 101.732 14.5 119.75 14.5" stroke="black" stroke-width="6" stroke-linecap="round" stroke-linejoin="round"/>
<path d="M87.125 37H107.062" stroke="black" stroke-width="6" stroke-linecap="round" stroke-linejoin="round"/>
<path opacity="0.4" fill-rule="evenodd" clip-rule="evenodd" d="M1.78568 36C2.77188 36 3.57135 36.7659 3.57135 37.7109C3.57135 43.5562 9.32036 48.204 17.2615 48.204C25.2027 48.204 30.9518 43.5562 30.9518 37.7109C30.9518 36.7659 31.7513 36 32.7374 36C33.7236 36 34.5231 36.7659 34.5231 37.7109V46.1509C34.5231 54.43 26.5521 60.75 17.2615 60.75C7.97097 60.75 0 54.43 0 46.1509V37.7109C0 36.7659 0.799475 36 1.78568 36ZM3.57409 46.373C3.71824 52.2351 9.5544 57.3284 17.2615 57.3284C24.9687 57.3284 30.8047 52.2351 30.9489 46.373C27.7281 49.6908 22.6778 51.6256 17.2615 51.6256C11.8452 51.6256 6.79503 49.6908 3.57409 46.373Z" fill="black"/>
<path fill-rule="evenodd" clip-rule="evenodd" d="M17.2615 14.76C13.3922 14.76 9.95633 16.0903 7.48365 18.2116C5.03357 20.3108 3.57135 23.1484 3.57135 26.226C3.57135 28.0267 4.07277 29.6764 4.95219 31.0907L4.95433 31.0941C7.11133 34.5812 11.6976 36.99 17.2615 36.99C22.8254 36.99 27.4117 34.5812 29.5688 31.0941L29.5708 31.0907C30.4504 29.6764 30.9518 28.0267 30.9518 26.226C30.9518 23.1521 29.4935 20.3139 27.0397 18.1885C24.5648 16.0885 21.1281 14.76 17.2615 14.76ZM5.13596 15.5665C8.28215 12.8678 12.56 11.25 17.2615 11.25C21.963 11.25 26.2379 12.8677 29.3814 15.5383L29.3938 15.5487C32.5079 18.243 34.5231 22.0016 34.5231 26.226C34.5231 28.6835 33.8344 30.9643 32.6194 32.9193C29.6809 37.6679 23.7917 40.5 17.2615 40.5C10.7314 40.5 4.84243 37.6682 1.90391 32.9195C0.688685 30.9645 0 28.6837 0 26.226C0 22.0031 2.0152 18.2408 5.13596 15.5665Z" fill="black"/>
<path fill-rule="evenodd" clip-rule="evenodd" d="M17.2615 14.7214C9.45723 14.7214 3.57135 20.0198 3.57135 26.0615V37.6328C3.57135 43.5632 9.32036 48.2785 17.2615 48.2785C25.2027 48.2785 30.9518 43.5632 30.9518 37.6328V26.0615C30.9518 23.0213 29.4935 20.2144 27.0397 18.1123C24.5648 16.0353 21.1281 14.7214 17.2615 14.7214ZM0 26.0615C0 17.6619 7.97097 11.25 17.2615 11.25C21.963 11.25 26.2379 12.8499 29.3814 15.4912L29.3938 15.5014C32.5079 18.1662 34.5231 21.8835 34.5231 26.0615V37.6328C34.5231 46.1437 26.4152 51.75 17.2615 51.75C8.10785 51.75 0 46.1437 0 37.6328V26.0615Z" fill="black"/>
</svg>
