<svg width="39" height="40" viewBox="0 0 39 40" fill="none" xmlns="http://www.w3.org/2000/svg">
<g filter="url(#filter0_d_200_696)">
<mask id="path-1-inside-1_200_696" fill="white">
<path fill-rule="evenodd" clip-rule="evenodd" d="M30.0294 32H32.951C34.3039 32 35 30.8705 35 28.6289V3.38823C35 1.14652 34.3039 0 32.951 0H30.0294C28.6961 0 28 1.14652 28 3.38823V28.6289C28 30.8705 28.6961 32 30.0294 32ZM18.0392 32.0058H20.9608C22.3137 32.0058 23 30.8764 23 28.635V8.39359C23 6.15214 22.3137 5.00577 20.9608 5.00577H18.0392C16.6961 5.00577 16 6.15214 16 8.39359V28.635C16 30.8764 16.6961 32.0058 18.0392 32.0058ZM8.95098 32.002H6.03922C4.69608 32.002 4 30.8738 4 28.6345V13.3866C4 11.1473 4.69608 10.002 6.03922 10.002H8.95098C10.3039 10.002 11 11.1473 11 13.3866V28.6345C11 30.8738 10.3039 32.002 8.95098 32.002Z"/>
</mask>
<path fill-rule="evenodd" clip-rule="evenodd" d="M30.0294 32H32.951C34.3039 32 35 30.8705 35 28.6289V3.38823C35 1.14652 34.3039 0 32.951 0H30.0294C28.6961 0 28 1.14652 28 3.38823V28.6289C28 30.8705 28.6961 32 30.0294 32ZM18.0392 32.0058H20.9608C22.3137 32.0058 23 30.8764 23 28.635V8.39359C23 6.15214 22.3137 5.00577 20.9608 5.00577H18.0392C16.6961 5.00577 16 6.15214 16 8.39359V28.635C16 30.8764 16.6961 32.0058 18.0392 32.0058ZM8.95098 32.002H6.03922C4.69608 32.002 4 30.8738 4 28.6345V13.3866C4 11.1473 4.69608 10.002 6.03922 10.002H8.95098C10.3039 10.002 11 11.1473 11 13.3866V28.6345C11 30.8738 10.3039 32.002 8.95098 32.002Z" fill="white"/>
<path d="M32.951 30H30.0294V34H32.951V30ZM33 28.6289C33 29.0916 32.9636 29.4426 32.9109 29.6994C32.8577 29.9586 32.7968 30.0785 32.7754 30.1136C32.7615 30.1364 32.7895 30.0849 32.8761 30.0372C32.9602 29.9908 33.0053 30 32.951 30V34C34.3016 34 35.4721 33.374 36.1903 32.1965C36.8147 31.1728 37 29.894 37 28.6289H33ZM33 3.38823V28.6289H37V3.38823H33ZM32.951 2C33.0004 2 32.9525 2.00815 32.8677 1.96085C32.7815 1.91277 32.7557 1.86238 32.7719 1.88917C32.7954 1.9279 32.8571 2.05166 32.9106 2.31357C32.9636 2.57285 33 2.92561 33 3.38823H37C37 2.12213 36.8143 0.84287 36.1938 -0.182224C35.4813 -1.35929 34.3135 -2 32.951 -2V2ZM30.0294 2H32.951V-2H30.0294V2ZM30 3.38823C30 2.92573 30.0364 2.57239 30.0894 2.31224C30.1429 2.04934 30.2048 1.92393 30.2289 1.88377C30.2462 1.85511 30.2207 1.9064 30.1321 1.95633C30.044 2.00601 29.9898 2 30.0294 2V-2C28.6651 -2 27.5051 -1.34902 26.8005 -0.176826C26.1861 0.845528 26 2.12123 26 3.38823H30ZM30 28.6289V3.38823H26V28.6289H30ZM30.0294 30C29.9848 30 30.0363 29.9929 30.1237 30.0416C30.2127 30.0912 30.2404 30.1436 30.2255 30.119C30.2033 30.0825 30.1423 29.9609 30.0891 29.7007C30.0364 29.4431 30 29.0915 30 28.6289H26C26 29.895 26.1857 31.1701 26.804 32.1911C27.5142 33.3639 28.6771 34 30.0294 34V30ZM20.9608 30.0058H18.0392V34.0058H20.9608V30.0058ZM21 28.635C21 29.0992 20.964 29.4515 20.9116 29.7094C20.8587 29.97 20.7981 30.0901 20.777 30.1248C20.7636 30.1469 20.7928 30.0936 20.8817 30.0444C20.9682 29.9965 21.0152 30.0058 20.9608 30.0058V34.0058C22.3132 34.0058 23.4833 33.3778 24.1984 32.197C24.8183 31.1736 25 29.8962 25 28.635H21ZM21 8.39359V28.635H25V8.39359H21ZM20.9608 7.00577C21.0102 7.00577 20.9605 7.01392 20.8734 6.96516C20.7848 6.91558 20.7579 6.86334 20.7736 6.88952C20.7967 6.92788 20.8581 7.05185 20.9113 7.31507C20.964 7.57551 21 7.92952 21 8.39359H25C25 7.13154 24.8179 5.85354 24.2019 4.82876C23.4924 3.6485 22.3252 3.00577 20.9608 3.00577V7.00577ZM18.0392 7.00577H20.9608V3.00577H18.0392V7.00577ZM18 8.39359C18 7.9311 18.0364 7.57812 18.0894 7.31847C18.1429 7.05614 18.2047 6.93162 18.2284 6.89223C18.2451 6.86456 18.2195 6.91541 18.1321 6.96441C18.0456 7.01288 17.9946 7.00577 18.0392 7.00577V3.00577C16.676 3.00577 15.512 3.65141 14.8034 4.82604C14.1859 5.84974 14 7.12716 14 8.39359H18ZM18 28.635V8.39359H14V28.635H18ZM18.0392 30.0058C17.9897 30.0058 18.0379 29.9976 18.1237 30.0451C18.2114 30.0938 18.2393 30.1457 18.225 30.1221C18.2032 30.0863 18.1423 29.9657 18.0891 29.706C18.0364 29.4489 18 29.0976 18 28.635H14C14 29.9006 14.1855 31.1774 14.8069 32.1997C15.5212 33.3749 16.6879 34.0058 18.0392 34.0058V30.0058ZM6.03922 34.002H8.95098V30.002H6.03922V34.002ZM2 28.6345C2 29.8992 2.18556 31.1756 2.80732 32.1975C3.52202 33.3722 4.68882 34.002 6.03922 34.002V30.002C5.98937 30.002 6.03737 29.9938 6.12302 30.0412C6.21067 30.0898 6.23871 30.1417 6.22455 30.1185C6.20297 30.083 6.14212 29.9628 6.089 29.7037C6.0364 29.4471 6 29.0965 6 28.6345H2ZM2 13.3866V28.6345H6V13.3866H2ZM6.03922 8.00204C4.67683 8.00204 3.51285 8.64663 2.80385 9.8208C2.18592 10.8441 2 12.1211 2 13.3866H6C6 12.9248 6.03638 12.5724 6.0893 12.3133C6.14276 12.0515 6.20444 11.9275 6.22802 11.8884C6.24452 11.8611 6.21871 11.912 6.13139 11.9609C6.04508 12.0092 5.99432 12.002 6.03922 12.002V8.00204ZM8.95098 8.00204H6.03922V12.002H8.95098V8.00204ZM13 13.3866C13 12.1215 12.8143 10.8428 12.1933 9.81809C11.4803 8.64154 10.3125 8.00204 8.95098 8.00204V12.002C9.00074 12.002 8.95314 12.0103 8.86849 11.9631C8.78236 11.9151 8.7564 11.8647 8.7724 11.8911C8.79564 11.9295 8.85723 12.0527 8.91069 12.314C8.96361 12.5727 9 12.9247 9 13.3866H13ZM13 28.6345V13.3866H9V28.6345H13ZM8.95098 34.002C10.3005 34.002 11.4711 33.3772 12.1898 32.2002C12.8146 31.177 13 29.8987 13 28.6345H9C9 29.0965 8.96359 29.4469 8.91099 29.703C8.85788 29.9616 8.79711 30.081 8.77588 30.1157C8.76222 30.1381 8.79042 30.0866 8.87685 30.039C8.96081 29.9927 9.00565 30.002 8.95098 30.002V34.002Z" fill="black" mask="url(#path-1-inside-1_200_696)"/>
</g>
<defs>
<filter id="filter0_d_200_696" x="0" y="0" width="39" height="40.0058" filterUnits="userSpaceOnUse" color-interpolation-filters="sRGB">
<feFlood flood-opacity="0" result="BackgroundImageFix"/>
<feColorMatrix in="SourceAlpha" type="matrix" values="0 0 0 0 0 0 0 0 0 0 0 0 0 0 0 0 0 0 127 0" result="hardAlpha"/>
<feOffset dy="4"/>
<feGaussianBlur stdDeviation="2"/>
<feComposite in2="hardAlpha" operator="out"/>
<feColorMatrix type="matrix" values="0 0 0 0 0 0 0 0 0 0 0 0 0 0 0 0 0 0 0.25 0"/>
<feBlend mode="normal" in2="BackgroundImageFix" result="effect1_dropShadow_200_696"/>
<feBlend mode="normal" in="SourceGraphic" in2="effect1_dropShadow_200_696" result="shape"/>
</filter>
</defs>
</svg>
