<svg width="192" height="192" viewBox="0 0 192 192" fill="none" xmlns="http://www.w3.org/2000/svg">
<path d="M3.93563 21.066L1.26562 23.846L2.15563 164.699L7.49563 170.259H116.076L127.646 145.239L145.446 136.899L167.696 123.926V55.3526L165.916 24.7726L161.466 19.2126L143.666 17.3593L142.776 8.09262L134.766 1.60596L127.646 7.16596L126.756 18.286H108.956H93.8256L92.9356 9.01929L84.9256 1.60596L76.9156 7.16596L76.0256 18.286H43.0956V12.726L39.5356 3.45929L34.1956 1.60596L27.9656 4.38596L25.2956 9.01929V16.4326H24.4056H17.2856L10.1656 17.3593L6.60563 18.286L3.93563 21.066Z" fill="#DBEAFE"/>
<path d="M151.203 168.798L128.003 148.798L132.003 143.198L146.403 154.398L168.003 129.598L174.403 130.398L151.203 168.798Z" fill="white"/>
<path fill-rule="evenodd" clip-rule="evenodd" d="M29.9537 1.35806C26.5695 3.15229 24.659 6.92325 24.659 11.8087V15.8609H18.3914C10.3817 15.8609 6.54919 17.1244 3.15678 20.8821L0.43924 23.8931L0.22003 94.2269L0 164.56L1.87847 167.578C5.82999 173.93 3.33494 173.68 62.7013 173.681L115.932 173.683L120.592 178.752C143.462 203.638 183.427 191.685 190.881 157.73C194.865 139.577 187.96 120.051 174.19 110.532L169.248 107.115L169.203 66.2933C169.152 20.942 169.29 22.1359 163.665 18.4028C161.198 16.7655 159.124 16.2973 153.076 16.0134L145.554 15.6599L145.076 11.3211C143.87 0.397903 134.065 -3.73191 127.49 3.91494C125.219 6.55647 124.822 7.67533 124.822 11.4392V15.8609H110.044H95.2658L95.2478 12.9954C95.1755 1.49913 84.2216 -4.09164 77.4097 3.89114C75.1404 6.54942 74.7406 7.68062 74.7406 11.4392V15.8609H59.5519H44.3632V11.8492C44.3632 2.48397 37.3986 -2.58748 29.9537 1.35806ZM38.8214 7.21862C39.9815 8.65929 40.2582 10.6872 40.2582 17.7618C40.2582 25.8865 40.1121 26.6783 38.2426 28.685C37.1343 29.8753 35.4553 30.8495 34.5111 30.8495C33.567 30.8495 31.888 29.8753 30.7796 28.685C28.9127 26.6809 28.7641 25.8821 28.7641 17.8332C28.7641 8.88853 29.2361 7.30326 32.4586 5.42439C34.5218 4.22177 36.9627 4.90949 38.8214 7.21862ZM88.903 7.21862C90.0713 8.66899 90.3398 10.7039 90.3398 18.0986C90.3398 26.9366 90.2766 27.2479 88.1173 29.0721C85.518 31.2675 82.4983 30.8813 80.2824 28.0696C79.1297 26.606 78.8456 24.5561 78.8456 17.6948C78.8456 8.89471 79.3267 7.29797 82.5402 5.42439C84.6034 4.22177 87.0442 4.90949 88.903 7.21862ZM138.985 7.21862C140.153 8.66899 140.421 10.7039 140.421 18.0986C140.421 26.9366 140.358 27.2479 138.199 29.0721C135.788 31.1079 132.804 30.9069 130.569 28.5572C128.964 26.8687 128.344 12.4461 129.724 8.87178C131.468 4.34873 136.02 3.53582 138.985 7.21862ZM165.052 80.283V105.03L163.204 104.394C156.718 102.158 147.282 101.029 142.359 102.111C139.077 102.111 154.256 101.468 151.385 101.923C147.692 101.815 148.103 101.029 137.846 102.786C125.538 107.115 125.949 109.375 122.256 112.449C117.841 116.842 116.517 118.131 115.344 120.795C113.796 124.309 115.344 121.812 112.918 126.951C107.065 139.356 107.054 153.315 112.886 167.751C113.487 169.238 111.009 169.301 61.221 169.073L8.92437 168.833L6.52949 165.954L4.13378 163.074V109.305V55.5367H84.5927H165.052V80.283ZM169.818 133.76C169.994 135.038 166.873 139.533 159.335 148.859C153.431 156.162 148.217 162.392 147.748 162.703C146.92 163.252 137.189 155.753 132.082 150.629C129.999 148.54 129.737 147.869 130.575 146.783C131.134 146.06 131.975 145.469 132.444 145.469C132.913 145.469 136.163 147.849 139.665 150.759C143.224 153.716 146.516 155.824 147.127 155.538C147.728 155.257 151.361 151.061 155.2 146.214C165.52 133.181 167.359 131.159 168.516 131.569C169.094 131.773 169.68 132.759 169.818 133.76Z" fill="#172554"/>
<path fill-rule="evenodd" clip-rule="evenodd" d="M13.9553 68.9296V74.6078H30.9901C40.3592 74.6078 48.0249 74.6831 48.0249 74.775C48.0249 74.8672 42.3619 85.4362 35.4403 98.2619C28.5187 111.088 20.8512 125.316 18.401 129.88L13.9463 138.178L14.0311 149.033L14.116 159.888L20.5442 147.983C24.0797 141.435 28.0048 134.157 29.2663 131.81C30.5279 129.463 31.6387 127.68 31.7348 127.846C31.8309 128.012 32.2744 129.187 32.7206 130.456C35.7151 138.975 42.7765 146.95 50.7835 150.857C66.9296 158.735 85.8649 152.993 95.5114 137.294C102.516 125.893 103.279 111.298 97.5103 99.041C94.1956 91.9973 89.1526 86.4758 82.52 82.6277L80.2135 81.2894L85.0109 72.4071C87.6494 67.5214 89.8083 63.4631 89.8083 63.3877C89.8083 63.3127 87.1489 63.2515 83.8985 63.2515H77.9884L76.383 66.2626C74.5027 69.7886 69.6365 78.8258 58.0339 100.337C53.4127 108.905 49.6319 115.99 49.6319 116.081C49.6319 116.173 52.2749 116.248 55.5047 116.248H61.3776L63.1832 112.892C64.1764 111.047 67.1977 105.433 69.8969 100.418C72.5964 95.4018 74.8543 91.2334 74.9147 91.1539C74.9752 91.0747 76.0834 91.5854 77.3774 92.2885C88.388 98.2722 93.6935 112.459 89.664 125.143C87.0252 133.45 80.3042 140.128 72.2432 142.451C68.3818 143.564 62.6548 143.478 58.7921 142.249C48.4237 138.951 41.2254 129.456 40.7121 118.4C40.5308 114.499 40.8857 111.936 42.046 108.766C42.4606 107.634 48.0252 97.0241 54.4119 85.1898C60.7984 73.3551 66.0239 63.5777 66.0239 63.4621C66.0239 63.3461 54.3084 63.2515 39.9896 63.2515H13.9553V68.9296Z" fill="#172554"/>
</svg>
