<svg width="41" height="42" viewBox="0 0 41 42" fill="none" xmlns="http://www.w3.org/2000/svg">
<g clip-path="url(#clip0_200_701)">
<path d="M15.3753 34.6667H10.2503C6.47638 34.6667 3.41699 31.6072 3.41699 27.8333V12.4583C3.41699 8.68439 6.47638 5.625 10.2503 5.625H29.042C32.8159 5.625 35.8753 8.68439 35.8753 12.4583V17.5833" stroke="black" stroke-width="2" stroke-linecap="round" stroke-linejoin="round"/>
<path d="M13.667 3.91667V7.33333" stroke="black" stroke-width="2" stroke-linecap="round" stroke-linejoin="round"/>
<path d="M25.625 3.91667V7.33333" stroke="black" stroke-width="2" stroke-linecap="round" stroke-linejoin="round"/>
<path d="M0 1H32.4583" stroke="black" stroke-width="2" stroke-linecap="round" stroke-linejoin="round"/>
<path d="M31.6045 27.2233L29.042 29.7858" stroke="black" stroke-width="2" stroke-linecap="round" stroke-linejoin="round"/>
<path d="M29.0417 38.0833C33.7591 38.0833 37.5833 34.2591 37.5833 29.5417C37.5833 24.8242 33.7591 21 29.0417 21C24.3242 21 20.5 24.8242 20.5 29.5417C20.5 34.2591 24.3242 38.0833 29.0417 38.0833Z" stroke="black" stroke-width="2" stroke-linecap="round" stroke-linejoin="round"/>
</g>
<defs>
<clipPath id="clip0_200_701">
<rect width="41" height="41" fill="white" transform="translate(0 0.5)"/>
</clipPath>
</defs>
</svg>
