<svg width="32" height="33" viewBox="0 0 32 33" fill="none" xmlns="http://www.w3.org/2000/svg">
<mask id="path-1-inside-1_199_400" fill="white">
<path fill-rule="evenodd" clip-rule="evenodd" d="M26.6281 32.9368H29.5496C30.9026 32.9368 31.5986 31.8073 31.5986 29.5657V4.32502C31.5986 2.08332 30.9026 0.936798 29.5496 0.936798H26.6281C25.2948 0.936798 24.5986 2.08332 24.5986 4.32502V29.5657C24.5986 31.8073 25.2948 32.9368 26.6281 32.9368ZM14.6379 32.9426H17.5594C18.9124 32.9426 19.5986 31.8132 19.5986 29.5718V9.33039C19.5986 7.08894 18.9124 5.94257 17.5594 5.94257H14.6379C13.2947 5.94257 12.5986 7.08894 12.5986 9.33039V29.5718C12.5986 31.8132 13.2947 32.9426 14.6379 32.9426ZM5.54961 32.9388H2.63785C1.29471 32.9388 0.598633 31.8105 0.598633 29.5713V14.3234C0.598633 12.0841 1.29471 10.9388 2.63785 10.9388H5.54961C6.90256 10.9388 7.59863 12.0841 7.59863 14.3234V29.5713C7.59863 31.8105 6.90256 32.9388 5.54961 32.9388Z"/>
</mask>
<path fill-rule="evenodd" clip-rule="evenodd" d="M26.6281 32.9368H29.5496C30.9026 32.9368 31.5986 31.8073 31.5986 29.5657V4.32502C31.5986 2.08332 30.9026 0.936798 29.5496 0.936798H26.6281C25.2948 0.936798 24.5986 2.08332 24.5986 4.32502V29.5657C24.5986 31.8073 25.2948 32.9368 26.6281 32.9368ZM14.6379 32.9426H17.5594C18.9124 32.9426 19.5986 31.8132 19.5986 29.5718V9.33039C19.5986 7.08894 18.9124 5.94257 17.5594 5.94257H14.6379C13.2947 5.94257 12.5986 7.08894 12.5986 9.33039V29.5718C12.5986 31.8132 13.2947 32.9426 14.6379 32.9426ZM5.54961 32.9388H2.63785C1.29471 32.9388 0.598633 31.8105 0.598633 29.5713V14.3234C0.598633 12.0841 1.29471 10.9388 2.63785 10.9388H5.54961C6.90256 10.9388 7.59863 12.0841 7.59863 14.3234V29.5713C7.59863 31.8105 6.90256 32.9388 5.54961 32.9388Z" fill="white"/>
<path d="M29.5496 30.9368H26.6281V34.9368H29.5496V30.9368ZM29.5986 29.5657C29.5986 30.0284 29.5622 30.3794 29.5095 30.6362C29.4564 30.8954 29.3955 31.0153 29.374 31.0504C29.3601 31.0732 29.3882 31.0217 29.4747 30.974C29.5588 30.9276 29.604 30.9368 29.5496 30.9368V34.9368C30.9002 34.9368 32.0707 34.3108 32.789 33.1333C33.4133 32.1096 33.5986 30.8308 33.5986 29.5657H29.5986ZM29.5986 4.32502V29.5657H33.5986V4.32502H29.5986ZM29.5496 2.9368C29.599 2.9368 29.5512 2.94495 29.4663 2.89765C29.3801 2.84956 29.3543 2.79917 29.3705 2.82597C29.394 2.8647 29.4557 2.98845 29.5092 3.25037C29.5622 3.50964 29.5986 3.8624 29.5986 4.32502H33.5986C33.5986 3.05893 33.413 1.77967 32.7924 0.754574C32.0799 -0.422494 30.9122 -1.0632 29.5496 -1.0632V2.9368ZM26.6281 2.9368H29.5496V-1.0632H26.6281V2.9368ZM26.5986 4.32502C26.5986 3.86253 26.635 3.50919 26.688 3.24903C26.7415 2.98614 26.8034 2.86072 26.8276 2.82057C26.8448 2.7919 26.8193 2.84319 26.7308 2.89312C26.6427 2.94281 26.5884 2.9368 26.6281 2.9368V-1.0632C25.2637 -1.0632 24.1037 -0.41222 23.3992 0.759972C22.7847 1.78233 22.5986 3.05802 22.5986 4.32502H26.5986ZM26.5986 29.5657V4.32502H22.5986V29.5657H26.5986ZM26.6281 30.9368C26.5835 30.9368 26.6349 30.9297 26.7224 30.9784C26.8113 31.028 26.839 31.0804 26.8241 31.0558C26.802 31.0193 26.7409 30.8977 26.6877 30.6375C26.635 30.3799 26.5986 30.0283 26.5986 29.5657H22.5986C22.5986 30.8318 22.7843 32.1069 23.4026 33.1279C24.1129 34.3007 25.2758 34.9368 26.6281 34.9368V30.9368ZM17.5594 30.9426H14.6379V34.9426H17.5594V30.9426ZM17.5986 29.5718C17.5986 30.036 17.5626 30.3883 17.5102 30.6462C17.4573 30.9068 17.3967 31.0269 17.3757 31.0616C17.3623 31.0837 17.3915 31.0304 17.4804 30.9812C17.5668 30.9333 17.6138 30.9426 17.5594 30.9426V34.9426C18.9119 34.9426 20.0819 34.3146 20.7971 33.1338C21.4169 32.1104 21.5986 30.8329 21.5986 29.5718H17.5986ZM17.5986 9.33039V29.5718H21.5986V9.33039H17.5986ZM17.5594 7.94257C17.6089 7.94257 17.5591 7.95072 17.472 7.90196C17.3834 7.85238 17.3565 7.80014 17.3722 7.82631C17.3953 7.86468 17.4567 7.98865 17.5099 8.25187C17.5626 8.51231 17.5986 8.86632 17.5986 9.33039H21.5986C21.5986 8.06834 21.4165 6.79033 20.8005 5.76556C20.0911 4.5853 18.9239 3.94257 17.5594 3.94257V7.94257ZM14.6379 7.94257H17.5594V3.94257H14.6379V7.94257ZM14.5986 9.33039C14.5986 8.8679 14.635 8.51492 14.688 8.25527C14.7415 7.99294 14.8033 7.86841 14.8271 7.82903C14.8438 7.80135 14.8181 7.85221 14.7307 7.9012C14.6443 7.94967 14.5933 7.94257 14.6379 7.94257V3.94257C13.2746 3.94257 12.1107 4.58821 11.402 5.76284C10.7845 6.78654 10.5986 8.06396 10.5986 9.33039H14.5986ZM14.5986 29.5718V9.33039H10.5986V29.5718H14.5986ZM14.6379 30.9426C14.5883 30.9426 14.6366 30.9344 14.7223 30.9819C14.8101 31.0306 14.838 31.0825 14.8236 31.0589C14.8019 31.0231 14.7409 30.9025 14.6877 30.6428C14.635 30.3857 14.5986 30.0344 14.5986 29.5718H10.5986C10.5986 30.8373 10.7841 32.1142 11.4055 33.1365C12.1198 34.3117 13.2866 34.9426 14.6379 34.9426V30.9426ZM2.63785 34.9388H5.54961V30.9388H2.63785V34.9388ZM-1.40137 29.5713C-1.40137 30.836 -1.21581 32.1124 -0.594051 33.1343C0.120654 34.309 1.28745 34.9388 2.63785 34.9388V30.9388C2.588 30.9388 2.636 30.9306 2.72165 30.978C2.80931 31.0266 2.83735 31.0785 2.82318 31.0553C2.80161 31.0198 2.74075 30.8996 2.68763 30.6405C2.63503 30.3839 2.59863 30.0333 2.59863 29.5713H-1.40137ZM-1.40137 14.3234V29.5713H2.59863V14.3234H-1.40137ZM2.63785 8.93884C1.27546 8.93884 0.111479 9.58342 -0.597522 10.7576C-1.21545 11.7809 -1.40137 13.0579 -1.40137 14.3234H2.59863C2.59863 13.8616 2.63501 13.5092 2.68793 13.2501C2.74139 12.9883 2.80307 12.8643 2.82665 12.8252C2.84315 12.7979 2.81734 12.8488 2.73003 12.8977C2.64371 12.946 2.59296 12.9388 2.63785 12.9388V8.93884ZM5.54961 8.93884H2.63785V12.9388H5.54961V8.93884ZM9.59863 14.3234C9.59863 13.0583 9.41289 11.7796 8.79192 10.7549C8.07894 9.57833 6.91112 8.93884 5.54961 8.93884V12.9388C5.59937 12.9388 5.55177 12.9471 5.46713 12.8999C5.381 12.8519 5.35503 12.8015 5.37103 12.8279C5.39427 12.8663 5.45586 12.9895 5.50932 13.2508C5.56224 13.5095 5.59863 13.8615 5.59863 14.3234H9.59863ZM9.59863 29.5713V14.3234H5.59863V29.5713H9.59863ZM5.54961 34.9388C6.89916 34.9388 8.06977 34.314 8.78844 33.137C9.41325 32.1137 9.59863 30.8355 9.59863 29.5713H5.59863C5.59863 30.0333 5.56222 30.3837 5.50962 30.6398C5.45651 30.8984 5.39574 31.0178 5.37452 31.0525C5.36086 31.0749 5.38905 31.0234 5.47548 30.9758C5.55944 30.9295 5.60429 30.9388 5.54961 30.9388V34.9388Z" fill="black" mask="url(#path-1-inside-1_199_400)"/>
</svg>
