<svg width="147" height="73" viewBox="0 0 147 73" fill="none" xmlns="http://www.w3.org/2000/svg">
<g clip-path="url(#clip0_96_27)">
<path opacity="0.4" fill-rule="evenodd" clip-rule="evenodd" d="M2.35345 36.5C3.44612 36.5 4.3319 37.2659 4.3319 38.2109C4.3319 44.0562 10.7015 48.704 19.5 48.704C28.2984 48.704 34.6681 44.0562 34.6681 38.2109C34.6681 37.2659 35.554 36.5 36.6466 36.5C37.7392 36.5 38.625 37.2659 38.625 38.2109V46.6509C38.625 54.93 29.7935 61.25 19.5 61.25C9.20647 61.25 0.375 54.93 0.375 46.6509V38.2109C0.375 37.2659 1.26078 36.5 2.35345 36.5ZM4.33493 46.873C4.49464 52.7351 10.9608 57.8284 19.5 57.8284C28.0392 57.8284 34.5052 52.7351 34.665 46.873C31.0965 50.1908 25.501 52.1256 19.5 52.1256C13.4989 52.1256 7.90359 50.1908 4.33493 46.873Z" fill="black"/>
<path fill-rule="evenodd" clip-rule="evenodd" d="M19.5 15.26C15.213 15.26 11.4062 16.5903 8.66654 18.7116C5.95196 20.8108 4.3319 23.6484 4.3319 26.726C4.3319 28.5267 4.88744 30.1764 5.8618 31.5907L5.86417 31.5941C8.25403 35.0812 13.3354 37.49 19.5 37.49C25.6646 37.49 30.746 35.0812 33.1359 31.5941L33.1381 31.5907C34.1126 30.1764 34.6681 28.5267 34.6681 26.726C34.6681 23.6521 33.0524 20.8139 30.3337 18.6885C27.5917 16.5885 23.784 15.26 19.5 15.26ZM6.06541 16.0665C9.55124 13.3678 14.291 11.75 19.5 11.75C24.709 11.75 29.4454 13.3677 32.9282 16.0383L32.942 16.0487C36.3923 18.743 38.625 22.5016 38.625 26.726C38.625 29.1835 37.862 31.4643 36.5158 33.4193C33.2601 38.1679 26.7351 41 19.5 41C12.2649 41 5.74019 38.1682 2.48444 33.4195C1.13803 31.4645 0.375 29.1837 0.375 26.726C0.375 22.5031 2.60775 18.7408 6.06541 16.0665Z" fill="black"/>
<path fill-rule="evenodd" clip-rule="evenodd" d="M19.5 15.2214C10.8532 15.2214 4.3319 20.5198 4.3319 26.5615V38.1328C4.3319 44.0632 10.7015 48.7785 19.5 48.7785C28.2984 48.7785 34.6681 44.0632 34.6681 38.1328V26.5615C34.6681 23.5213 33.0524 20.7144 30.3337 18.6123C27.5917 16.5353 23.784 15.2214 19.5 15.2214ZM0.375 26.5615C0.375 18.1619 9.20647 11.75 19.5 11.75C24.709 11.75 29.4454 13.3499 32.9282 15.9912L32.942 16.0014C36.3923 18.6662 38.625 22.3835 38.625 26.5615V38.1328C38.625 46.6437 29.6419 52.25 19.5 52.25C9.35812 52.25 0.375 46.6437 0.375 38.1328V26.5615Z" fill="black"/>
<path d="M56.625 53.3192V23.4806H67.479C69.4817 23.4806 71.2439 23.8543 72.7658 24.602C74.3145 25.3229 75.516 26.391 76.3705 27.8062C77.2249 29.1947 77.6522 30.8635 77.6522 32.8127C77.6522 34.7351 77.2116 36.3906 76.3305 37.7791C75.4759 39.1676 74.2877 40.2357 72.7658 40.9831C71.2439 41.7308 69.4817 42.1047 67.479 42.1047H61.3511V53.3192H56.625ZM61.3511 37.8993H67.5991C68.6672 37.8993 69.6019 37.6857 70.4029 37.2585C71.2039 36.8312 71.8314 36.2437 72.2852 35.496C72.739 34.7218 72.9661 33.8139 72.9661 32.7726C72.9661 31.7313 72.739 30.8367 72.2852 30.0891C71.8314 29.3148 71.2039 28.7274 70.4029 28.3269C69.6019 27.8996 68.6672 27.6861 67.5991 27.6861H61.3511V37.8993Z" fill="black"/>
<path d="M91.1471 53.7998C89.0645 53.7998 87.1554 53.3059 85.4197 52.318C83.7108 51.33 82.3491 49.9816 81.3344 48.2727C80.3199 46.5638 79.8125 44.6279 79.8125 42.4652C79.8125 40.2757 80.3199 38.3398 81.3344 36.6577C82.3491 34.9489 83.7108 33.6137 85.4197 32.6525C87.1286 31.6645 89.0377 31.1707 91.1471 31.1707C93.2832 31.1707 95.1924 31.6645 96.8747 32.6525C98.5836 33.6137 99.9318 34.9489 100.92 36.6577C101.934 38.3398 102.442 40.2757 102.442 42.4652C102.442 44.6547 101.934 46.6039 100.92 48.3127C99.9052 50.0216 98.5433 51.37 96.8344 52.358C95.1256 53.3192 93.2299 53.7998 91.1471 53.7998ZM91.1471 49.5943C92.4289 49.5943 93.5636 49.2872 94.5516 48.6732C95.5395 48.0592 96.3138 47.2179 96.8747 46.15C97.4619 45.0552 97.7558 43.8269 97.7558 42.4652C97.7558 41.1035 97.4619 39.8885 96.8747 38.8204C96.3138 37.7524 95.5395 36.9113 94.5516 36.2973C93.5636 35.683 92.4289 35.3759 91.1471 35.3759C89.8923 35.3759 88.7574 35.683 87.7428 36.2973C86.7549 36.9113 85.9672 37.7524 85.3797 38.8204C84.819 39.8885 84.5386 41.1035 84.5386 42.4652C84.5386 43.8269 84.819 45.0552 85.3797 46.15C85.9672 47.2179 86.7549 48.0592 87.7428 48.6732C88.7574 49.2872 89.8923 49.5943 91.1471 49.5943Z" fill="black"/>
<path d="M106.259 53.3192V23H110.785V53.3192H106.259Z" fill="black"/>
<path d="M115.477 53.3192V31.6512H120.002V53.3192H115.477ZM115.477 28.6873V23.4806H120.002V28.6873H115.477Z" fill="black"/>
<path d="M135.147 53.7998C133.065 53.7998 131.155 53.3059 129.42 52.318C127.711 51.33 126.349 49.9816 125.335 48.2727C124.32 46.5638 123.812 44.6279 123.812 42.4652C123.812 40.2757 124.32 38.3398 125.335 36.6577C126.349 34.9489 127.711 33.6137 129.42 32.6525C131.129 31.6645 133.038 31.1707 135.147 31.1707C137.283 31.1707 139.192 31.6645 140.875 32.6525C142.584 33.6137 143.932 34.9489 144.92 36.6577C145.934 38.3398 146.442 40.2757 146.442 42.4652C146.442 44.6547 145.934 46.6039 144.92 48.3127C143.905 50.0216 142.544 51.37 140.835 52.358C139.126 53.3192 137.23 53.7998 135.147 53.7998ZM135.147 49.5943C136.429 49.5943 137.564 49.2872 138.552 48.6732C139.54 48.0592 140.314 47.2179 140.875 46.15C141.462 45.0552 141.756 43.8269 141.756 42.4652C141.756 41.1035 141.462 39.8885 140.875 38.8204C140.314 37.7524 139.54 36.9113 138.552 36.2973C137.564 35.683 136.429 35.3759 135.147 35.3759C133.892 35.3759 132.758 35.683 131.743 36.2973C130.755 36.9113 129.967 37.7524 129.38 38.8204C128.819 39.8885 128.539 41.1035 128.539 42.4652C128.539 43.8269 128.819 45.0552 129.38 46.15C129.967 47.2179 130.755 48.0592 131.743 48.6732C132.758 49.2872 133.892 49.5943 135.147 49.5943Z" fill="black"/>
</g>
<defs>
<clipPath id="clip0_96_27">
<rect width="146.25" height="72" fill="white" transform="translate(0.375 0.5)"/>
</clipPath>
</defs>
</svg>
